<?xml version="1.0" standalone="no"?>
<!DOCTYPE svg PUBLIC "-//W3C//DTD SVG 20010904//EN"
 "http://www.w3.org/TR/2001/REC-SVG-20010904/DTD/svg10.dtd">
<svg version="1.0" xmlns="http://www.w3.org/2000/svg"
 width="88.000000pt" height="88.000000pt" viewBox="0 0 88.000000 88.000000"
 preserveAspectRatio="xMidYMid meet">
<metadata>
Created by potrace 1.14, written by Peter Selinger 2001-2017
</metadata>
<g transform="translate(0.000000,88.000000) scale(0.100000,-0.100000)"
fill="#000000" stroke="none">
<path d="M0 440 l0 -440 440 0 440 0 0 440 0 440 -440 0 -440 0 0 -440z m313
389 c43 -12 111 -68 133 -110 8 -16 14 -42 14 -59 0 -25 -4 -30 -23 -30 -19 0
-26 8 -36 40 -25 84 -108 140 -208 140 l-33 0 0 -189 c0 -208 -2 -201 63 -201
18 0 47 4 65 9 29 9 33 8 30 -7 -5 -23 -39 -30 -165 -31 -94 -1 -113 1 -113
14 0 8 9 15 20 15 10 0 24 9 30 19 11 21 14 328 4 355 -3 9 -17 16 -30 16 -15
0 -24 6 -24 15 0 12 20 15 118 15 64 0 134 -5 155 -11z m352 -258 c62 -27 121
-83 146 -136 25 -54 25 -175 0 -230 -25 -56 -76 -104 -141 -134 -50 -23 -69
-26 -217 -29 -161 -4 -163 -4 -163 17 0 14 6 21 19 21 11 0 27 7 36 16 13 14
15 46 14 227 0 115 -3 216 -6 223 -2 7 -18 16 -34 19 -17 4 -29 13 -29 22 0
13 21 15 163 11 141 -4 169 -7 212 -27z"/>
<path d="M456 534 c-3 -9 -6 -104 -6 -213 0 -237 -1 -236 87 -229 120 8 193
95 193 228 0 141 -88 230 -226 230 -29 0 -44 -5 -48 -16z"/>
</g>
</svg>
